<svg width="26" height="23" viewBox="0 0 26 23" fill="none" xmlns="http://www.w3.org/2000/svg">
<g clip-path="url(#clip0_34_154)">
<path d="M19.2391 4.37933C20.065 4.37933 20.8571 4.67361 21.4411 5.19741C22.0252 5.72122 22.3532 6.43166 22.3532 7.17244V14.6207C22.3532 15.3615 22.0252 16.0719 21.4411 16.5957C20.8571 17.1195 20.065 17.4138 19.2391 17.4138H14.0489L8.85869 20.2069V17.4138H6.78261C5.95669 17.4138 5.1646 17.1195 4.58059 16.5957C3.99657 16.0719 3.66848 15.3615 3.66848 14.6207V7.17244C3.66848 6.43166 3.99657 5.72122 4.58059 5.19741C5.1646 4.67361 5.95669 4.37933 6.78261 4.37933H19.2391Z" stroke="#03045E" stroke-width="1.5" stroke-linecap="round" stroke-linejoin="round"/>
<path d="M13.0109 8.10345V10.8966" stroke="#03045E" stroke-width="1.5" stroke-linecap="round" stroke-linejoin="round"/>
<path d="M13.0109 13.6897V13.6988" stroke="#03045E" stroke-width="1.5" stroke-linecap="round" stroke-linejoin="round"/>
</g>
<defs>
<clipPath id="clip0_34_154">
<rect width="24.913" height="22.3448" fill="white" transform="translate(0.554352 0.655182)"/>
</clipPath>
</defs>
</svg>
