<svg width="31" height="30" viewBox="0 0 31 30" fill="none" xmlns="http://www.w3.org/2000/svg">
<g clip-path="url(#clip0_135_1450)" filter="url(#filter0_d_135_1450)">
<path d="M15.2713 0C9.3487 0 4.50293 4.84914 4.50293 10.7759C4.50293 13.2543 5.3644 15.625 6.97966 17.5647L4.82598 19.7198C4.39525 20.1509 4.39525 20.7974 4.82598 21.2284C5.04135 21.444 5.25672 21.5517 5.57977 21.5517H15.2713C21.1939 21.5517 26.0397 16.7026 26.0397 10.7759C26.0397 4.84914 21.1939 0 15.2713 0ZM10.964 11.8534C10.3179 11.8534 9.88712 11.4224 9.88712 10.7759C9.88712 10.1293 10.3179 9.69827 10.964 9.69827C11.6101 9.69827 12.0408 10.1293 12.0408 10.7759C12.0408 11.4224 11.6101 11.8534 10.964 11.8534ZM15.2713 11.8534C14.6252 11.8534 14.1945 11.4224 14.1945 10.7759C14.1945 10.1293 14.6252 9.69827 15.2713 9.69827C15.9174 9.69827 16.3481 10.1293 16.3481 10.7759C16.3481 11.4224 15.9174 11.8534 15.2713 11.8534ZM19.5787 11.8534C18.9326 11.8534 18.5018 11.4224 18.5018 10.7759C18.5018 10.1293 18.9326 9.69827 19.5787 9.69827C20.2248 9.69827 20.6555 10.1293 20.6555 10.7759C20.6555 11.4224 20.2248 11.8534 19.5787 11.8534Z" fill="#03045E"/>
</g>
<defs>
<filter id="filter0_d_135_1450" x="0.50293" y="0" width="29.5367" height="29.5518" filterUnits="userSpaceOnUse" color-interpolation-filters="sRGB">
<feFlood flood-opacity="0" result="BackgroundImageFix"/>
<feColorMatrix in="SourceAlpha" type="matrix" values="0 0 0 0 0 0 0 0 0 0 0 0 0 0 0 0 0 0 127 0" result="hardAlpha"/>
<feOffset dy="4"/>
<feGaussianBlur stdDeviation="2"/>
<feComposite in2="hardAlpha" operator="out"/>
<feColorMatrix type="matrix" values="0 0 0 0 0 0 0 0 0 0 0 0 0 0 0 0 0 0 0.25 0"/>
<feBlend mode="normal" in2="BackgroundImageFix" result="effect1_dropShadow_135_1450"/>
<feBlend mode="normal" in="SourceGraphic" in2="effect1_dropShadow_135_1450" result="shape"/>
</filter>
<clipPath id="clip0_135_1450">
<rect width="21.5368" height="21.5517" fill="white" transform="translate(4.50293)"/>
</clipPath>
</defs>
</svg>
