<svg width="25" height="23" viewBox="0 0 25 23" fill="none" xmlns="http://www.w3.org/2000/svg">
<g clip-path="url(#clip0_34_105)">
<path d="M14.7983 17.6896C15.6962 17.6896 16.1706 18.643 15.5716 19.2426C15.1825 19.6331 14.7058 19.9455 14.1727 20.1592C13.6396 20.3729 13.0622 20.4832 12.4783 20.4827C11.8943 20.4832 11.3169 20.3729 10.7838 20.1592C10.2507 19.9455 9.77398 19.6331 9.38489 19.2426C8.81189 18.6691 9.22088 17.7725 10.043 17.6962L10.1572 17.6906L14.7983 17.6896Z" fill="#03045E"/>
<path d="M12.4782 1.86206C13.8879 1.86206 15.0796 2.70278 15.4626 3.85541L15.5104 4.01461L15.5187 4.05465C16.663 4.63366 17.6381 5.44757 18.3642 6.42972C19.0902 7.41186 19.5465 8.5343 19.6958 9.7051L19.7248 9.9723L19.7445 10.2414V12.9702L19.7663 13.0969C19.9085 13.7829 20.3317 14.3963 20.9528 14.8165L21.1262 14.9254L21.2943 15.0176C22.1871 15.471 21.8756 16.6618 20.903 16.753L20.7826 16.7586H4.1739C3.10679 16.7586 2.73413 15.4887 3.66214 15.0176C4.05767 14.8168 4.39941 14.5408 4.66338 14.209C4.92734 13.8772 5.10714 13.4976 5.19014 13.0969L5.21194 12.9637L5.21298 10.1985C5.27627 8.9825 5.67092 7.79891 6.36239 6.75136C7.05385 5.70381 8.02106 4.82425 9.17934 4.18965L9.43678 4.05372L9.44716 4.01368C9.59399 3.45695 9.92772 2.95401 10.4033 2.57275C10.8789 2.19149 11.4734 1.95026 12.1066 1.88161L12.2955 1.86578L12.4782 1.86206Z" fill="#03045E"/>
</g>
<defs>
<clipPath id="clip0_34_105">
<rect width="24.913" height="22.3448" fill="white" transform="translate(0.0217285)"/>
</clipPath>
</defs>
</svg>
