<svg width="27" height="27" viewBox="0 0 27 27" fill="none" xmlns="http://www.w3.org/2000/svg">
<g id="Frame">
<path id="Vector" d="M17.4676 7.1852L20.5809 7.1157C20.8562 7.10955 21.1226 7.21384 21.3216 7.40562C21.5206 7.5974 21.6359 7.86096 21.6421 8.13832L21.8989 19.642C21.9113 20.1968 21.7045 20.7336 21.324 21.1346C20.9435 21.5355 20.4205 21.7677 19.87 21.78M19.87 21.78C19.3195 21.7922 18.7867 21.5837 18.3887 21.2001C17.9907 20.8165 17.7601 20.2894 17.7477 19.7347L17.4442 6.13941C17.438 5.86205 17.3227 5.59849 17.1237 5.40671C16.9247 5.21493 16.6583 5.11064 16.3831 5.11679L6.00524 5.34847C5.73 5.35462 5.4685 5.47069 5.27825 5.67116C5.08801 5.87163 4.98461 6.14007 4.9908 6.41744L5.27097 18.9669C5.28955 19.799 5.63538 20.5897 6.23238 21.165C6.82938 21.7404 7.62866 22.0532 8.45437 22.0348L19.87 21.78Z" stroke="#03045E" stroke-width="1.5" stroke-linecap="round" stroke-linejoin="round"/>
<path id="Vector_2" d="M9.21199 9.46216L13.3631 9.36948" stroke="#03045E" stroke-width="1.5" stroke-linecap="round" stroke-linejoin="round"/>
<path id="Vector_3" d="M9.30537 13.6453L13.4565 13.5526" stroke="#03045E" stroke-width="1.5" stroke-linecap="round" stroke-linejoin="round"/>
<path id="Vector_4" d="M9.39877 17.8285L13.5499 17.7358" stroke="#03045E" stroke-width="1.5" stroke-linecap="round" stroke-linejoin="round"/>
</g>
</svg>
