<svg width="25" height="24" viewBox="0 0 25 24" fill="none" xmlns="http://www.w3.org/2000/svg">
<g clip-path="url(#clip0_119_6178)">
<path d="M15.5217 8H15.5317" stroke="#03045E" stroke-width="1.5" stroke-linecap="round" stroke-linejoin="round"/>
<path d="M13.0217 21H6.52173C5.72608 21 4.96302 20.6839 4.40041 20.1213C3.8378 19.5587 3.52173 18.7956 3.52173 18V6C3.52173 5.20435 3.8378 4.44129 4.40041 3.87868C4.96302 3.31607 5.72608 3 6.52173 3H18.5217C19.3174 3 20.0804 3.31607 20.643 3.87868C21.2057 4.44129 21.5217 5.20435 21.5217 6V12.5" stroke="#03045E" stroke-width="1.5" stroke-linecap="round" stroke-linejoin="round"/>
<path d="M3.52173 16L8.52173 11C9.44973 10.107 10.5937 10.107 11.5217 11L15.5217 15" stroke="#03045E" stroke-width="1.5" stroke-linecap="round" stroke-linejoin="round"/>
<path d="M14.5217 14L15.5217 13C16.1917 12.356 16.9717 12.176 17.7037 12.46" stroke="#03045E" stroke-width="1.5" stroke-linecap="round" stroke-linejoin="round"/>
<path d="M16.5217 19H22.5217" stroke="#03045E" stroke-width="1.5" stroke-linecap="round" stroke-linejoin="round"/>
<path d="M19.5217 16V22" stroke="#03045E" stroke-width="1.5" stroke-linecap="round" stroke-linejoin="round"/>
</g>
<defs>
<clipPath id="clip0_119_6178">
<rect width="24" height="24" fill="white" transform="translate(0.521729)"/>
</clipPath>
</defs>
</svg>
