<svg width="25" height="24" viewBox="0 0 25 24" fill="none" xmlns="http://www.w3.org/2000/svg">
<g clip-path="url(#clip0_119_7154)">
<path d="M4.52173 6C4.52173 5.46957 4.73244 4.96086 5.10751 4.58579C5.48259 4.21071 5.9913 4 6.52173 4H18.5217C19.0522 4 19.5609 4.21071 19.9359 4.58579C20.311 4.96086 20.5217 5.46957 20.5217 6V18C20.5217 18.5304 20.311 19.0391 19.9359 19.4142C19.5609 19.7893 19.0522 20 18.5217 20H6.52173C5.9913 20 5.48259 19.7893 5.10751 19.4142C4.73244 19.0391 4.52173 18.5304 4.52173 18V6Z" stroke="#03045E" stroke-width="1.5" stroke-linecap="round" stroke-linejoin="round"/>
<path d="M8.52173 4V20" stroke="#03045E" stroke-width="1.5" stroke-linecap="round" stroke-linejoin="round"/>
<path d="M16.5217 4V20" stroke="#03045E" stroke-width="1.5" stroke-linecap="round" stroke-linejoin="round"/>
<path d="M4.52173 8H8.52173" stroke="#03045E" stroke-width="1.5" stroke-linecap="round" stroke-linejoin="round"/>
<path d="M4.52173 16H8.52173" stroke="#03045E" stroke-width="1.5" stroke-linecap="round" stroke-linejoin="round"/>
<path d="M4.52173 12H20.5217" stroke="#03045E" stroke-width="1.5" stroke-linecap="round" stroke-linejoin="round"/>
<path d="M16.5217 8H20.5217" stroke="#03045E" stroke-width="1.5" stroke-linecap="round" stroke-linejoin="round"/>
<path d="M16.5217 16H20.5217" stroke="#03045E" stroke-width="1.5" stroke-linecap="round" stroke-linejoin="round"/>
</g>
<defs>
<clipPath id="clip0_119_7154">
<rect width="24" height="24" fill="white" transform="translate(0.521729)"/>
</clipPath>
</defs>
</svg>
