<svg width="25" height="24" viewBox="0 0 25 24" fill="none" xmlns="http://www.w3.org/2000/svg">
<g clip-path="url(#clip0_134_8436)">
<path d="M4.52173 5C4.52173 4.73478 4.62709 4.48043 4.81462 4.29289C5.00216 4.10536 5.25651 4 5.52173 4H9.52173C9.78695 4 10.0413 4.10536 10.2288 4.29289C10.4164 4.48043 10.5217 4.73478 10.5217 5V9C10.5217 9.26522 10.4164 9.51957 10.2288 9.70711C10.0413 9.89464 9.78695 10 9.52173 10H5.52173C5.25651 10 5.00216 9.89464 4.81462 9.70711C4.62709 9.51957 4.52173 9.26522 4.52173 9V5Z" stroke="#03045E" stroke-width="1.5" stroke-linecap="round" stroke-linejoin="round"/>
<path d="M7.52173 17V17.01" stroke="#03045E" stroke-width="1.5" stroke-linecap="round" stroke-linejoin="round"/>
<path d="M14.5217 5C14.5217 4.73478 14.6271 4.48043 14.8146 4.29289C15.0022 4.10536 15.2565 4 15.5217 4H19.5217C19.7869 4 20.0413 4.10536 20.2288 4.29289C20.4164 4.48043 20.5217 4.73478 20.5217 5V9C20.5217 9.26522 20.4164 9.51957 20.2288 9.70711C20.0413 9.89464 19.7869 10 19.5217 10H15.5217C15.2565 10 15.0022 9.89464 14.8146 9.70711C14.6271 9.51957 14.5217 9.26522 14.5217 9V5Z" stroke="#03045E" stroke-width="1.5" stroke-linecap="round" stroke-linejoin="round"/>
<path d="M7.52173 7V7.01" stroke="#03045E" stroke-width="1.5" stroke-linecap="round" stroke-linejoin="round"/>
<path d="M4.52173 15C4.52173 14.7348 4.62709 14.4804 4.81462 14.2929C5.00216 14.1054 5.25651 14 5.52173 14H9.52173C9.78695 14 10.0413 14.1054 10.2288 14.2929C10.4164 14.4804 10.5217 14.7348 10.5217 15V19C10.5217 19.2652 10.4164 19.5196 10.2288 19.7071C10.0413 19.8946 9.78695 20 9.52173 20H5.52173C5.25651 20 5.00216 19.8946 4.81462 19.7071C4.62709 19.5196 4.52173 19.2652 4.52173 19V15Z" stroke="#03045E" stroke-width="1.5" stroke-linecap="round" stroke-linejoin="round"/>
<path d="M17.5217 7V7.01" stroke="#03045E" stroke-width="1.5" stroke-linecap="round" stroke-linejoin="round"/>
<path d="M14.5217 14H17.5217" stroke="#03045E" stroke-width="1.5" stroke-linecap="round" stroke-linejoin="round"/>
<path d="M20.5217 14V14.01" stroke="#03045E" stroke-width="1.5" stroke-linecap="round" stroke-linejoin="round"/>
<path d="M14.5217 14V17" stroke="#03045E" stroke-width="1.5" stroke-linecap="round" stroke-linejoin="round"/>
<path d="M14.5217 20H17.5217" stroke="#03045E" stroke-width="1.5" stroke-linecap="round" stroke-linejoin="round"/>
<path d="M17.5217 17H20.5217" stroke="#03045E" stroke-width="1.5" stroke-linecap="round" stroke-linejoin="round"/>
<path d="M20.5217 17V20" stroke="#03045E" stroke-width="1.5" stroke-linecap="round" stroke-linejoin="round"/>
</g>
<defs>
<clipPath id="clip0_134_8436">
<rect width="24" height="24" fill="white" transform="translate(0.521729)"/>
</clipPath>
</defs>
</svg>
