<svg width="26" height="26" viewBox="0 0 26 26" fill="none" xmlns="http://www.w3.org/2000/svg">
<g clip-path="url(#clip0_20_10142)">
<path d="M5.05975 13.2632C5.05975 13.5406 5.16912 13.8067 5.36379 14.0028C5.55846 14.199 5.82249 14.3092 6.0978 14.3092C6.3731 14.3092 6.63713 14.199 6.8318 14.0028C7.02648 13.8067 7.13584 13.5406 7.13584 13.2632C7.13584 12.9857 7.02648 12.7197 6.8318 12.5235C6.63713 12.3273 6.3731 12.2171 6.0978 12.2171C5.82249 12.2171 5.55846 12.3273 5.36379 12.5235C5.16912 12.7197 5.05975 12.9857 5.05975 13.2632Z" stroke="#03045E" stroke-width="1.5" stroke-linecap="round" stroke-linejoin="round"/>
<path d="M12.3261 13.2632C12.3261 13.5406 12.4354 13.8067 12.6301 14.0028C12.8248 14.199 13.0888 14.3092 13.3641 14.3092C13.6394 14.3092 13.9035 14.199 14.0981 14.0028C14.2928 13.8067 14.4022 13.5406 14.4022 13.2632C14.4022 12.9857 14.2928 12.7197 14.0981 12.5235C13.9035 12.3273 13.6394 12.2171 13.3641 12.2171C13.0888 12.2171 12.8248 12.3273 12.6301 12.5235C12.4354 12.7197 12.3261 12.9857 12.3261 13.2632Z" stroke="#03045E" stroke-width="1.5" stroke-linecap="round" stroke-linejoin="round"/>
<path d="M19.5924 13.2632C19.5924 13.5406 19.7017 13.8067 19.8964 14.0028C20.0911 14.199 20.3551 14.3092 20.6304 14.3092C20.9057 14.3092 21.1698 14.199 21.3644 14.0028C21.5591 13.8067 21.6685 13.5406 21.6685 13.2632C21.6685 12.9857 21.5591 12.7197 21.3644 12.5235C21.1698 12.3273 20.9057 12.2171 20.6304 12.2171C20.3551 12.2171 20.0911 12.3273 19.8964 12.5235C19.7017 12.7197 19.5924 12.9857 19.5924 13.2632Z" stroke="#03045E" stroke-width="1.5" stroke-linecap="round" stroke-linejoin="round"/>
</g>
<defs>
<clipPath id="clip0_20_10142">
<rect width="24.913" height="25.1053" fill="white" transform="translate(0.907593 0.71051)"/>
</clipPath>
</defs>
</svg>
