<svg width="22" height="20" viewBox="0 0 22 20" fill="none" xmlns="http://www.w3.org/2000/svg">
<path d="M18.7834 10.5475L10.7071 18.5518L2.63084 10.5475C2.09813 10.0287 1.67853 9.40523 1.39845 8.71624C1.11837 8.02726 0.983882 7.28771 1.00345 6.54415C1.02303 5.8006 1.19624 5.06915 1.51217 4.39588C1.82811 3.72261 2.27994 3.12208 2.83919 2.63213C3.39845 2.14218 4.05302 1.77341 4.7617 1.54905C5.47037 1.32469 6.21779 1.24959 6.95689 1.32849C7.69599 1.40739 8.41076 1.63857 9.05619 2.00749C9.70163 2.3764 10.2637 2.87504 10.7071 3.47203C11.1524 2.87938 11.7152 2.38509 12.3602 2.02009C13.0052 1.6551 13.7185 1.42725 14.4555 1.35082C15.1925 1.27439 15.9374 1.35101 16.6435 1.5759C17.3496 1.80078 18.0016 2.16909 18.5589 2.65776C19.1162 3.14644 19.5667 3.74496 19.8822 4.41588C20.1977 5.08679 20.3715 5.81565 20.3925 6.55684C20.4136 7.29803 20.2816 8.0356 20.0047 8.72337C19.7278 9.41115 19.312 10.0343 18.7834 10.5539" stroke="#03045E" stroke-width="1.5" stroke-linecap="round" stroke-linejoin="round"/>
</svg>
