<?xml version="1.0" encoding="UTF-8"?>
<!DOCTYPE svg PUBLIC "-//W3C//DTD SVG 1.1//EN" "http://www.w3.org/Graphics/SVG/1.1/DTD/svg11.dtd">
<svg xmlns="http://www.w3.org/2000/svg" version="1.1" width="188px" height="188px" style="shape-rendering:geometricPrecision; text-rendering:geometricPrecision; image-rendering:optimizeQuality; fill-rule:evenodd; clip-rule:evenodd" xmlns:xlink="http://www.w3.org/1999/xlink">
<g><path style="opacity:1" fill="#cdedf6" d="M 110.5,181.5 C 99.8261,182.825 89.1595,182.658 78.5,181C 68.8779,178.405 59.2112,175.905 49.5,173.5C 18.3706,156.449 2.37058,129.949 1.5,94C 3.6789,53.6202 23.3456,25.6202 60.5,10C 100.455,-2.05454 134.288,7.44546 162,38.5C 187.997,75.8516 187.997,113.185 162,150.5C 148.574,167.126 131.408,177.46 110.5,181.5 Z"/></g>
<g><path style="opacity:1" fill="#b9d3f0" d="M 98.5,12.5 C 92.1579,12.3338 85.8246,12.5005 79.5,13C 75.1101,13.2593 71.1101,14.4259 67.5,16.5C 62.4253,17.038 57.7586,18.7046 53.5,21.5C 53.3893,20.8826 53.056,20.3826 52.5,20C 67.101,12.3131 82.4343,9.81309 98.5,12.5 Z"/></g>
<g><path style="opacity:1" fill="#03055d" d="M 127.5,21.5 C 132.747,23.1243 137.414,25.791 141.5,29.5C 141.273,31.9975 139.94,33.6641 137.5,34.5C 138.722,36.9783 140.722,37.9783 143.5,37.5C 143.125,34.0933 144.125,33.5933 146.5,36C 147.406,37.6995 147.739,39.5328 147.5,41.5C 111.847,40.3802 76.1806,40.2135 40.5,41C 39.944,41.3826 39.6107,41.8826 39.5,42.5C 37.1789,42.2289 35.1789,42.8955 33.5,44.5C 31.4781,47.5238 30.4781,50.8571 30.5,54.5C 29.448,54.3505 28.448,54.5172 27.5,55C 27.8333,55.3333 28.1667,55.6667 28.5,56C 26.1326,58.083 24.2992,60.583 23,63.5C 22.4569,61.3686 21.6236,59.3686 20.5,57.5C 20.1667,57.8333 19.8333,58.1667 19.5,58.5C 20.4885,65.2729 21.1551,72.2729 21.5,79.5C 21.7023,86.1916 21.0356,92.6916 19.5,99C 19.6876,101.355 20.0209,103.688 20.5,106C 18.0838,109.636 16.4171,113.636 15.5,118C 15.6313,120.253 16.1313,122.419 17,124.5C 17.2189,123.062 17.7189,121.729 18.5,120.5C 19.1735,122.689 20.1735,124.689 21.5,126.5C 20.7376,126.911 19.7376,127.077 18.5,127C 19.4231,129.041 19.7564,131.208 19.5,133.5C 6.7404,108.155 6.2404,82.4886 18,56.5C 26.3806,41.2858 38.2139,29.6191 53.5,21.5C 57.7586,18.7046 62.4253,17.038 67.5,16.5C 71.2896,16.0077 71.9563,16.841 69.5,19C 71.108,19.658 72.2747,19.158 73,17.5C 74.8709,18.6678 76.3709,18.1678 77.5,16C 77.1667,15.6667 76.8333,15.3333 76.5,15C 85.8333,14.3333 95.1667,14.3333 104.5,15C 112.153,17.3288 119.819,19.4955 127.5,21.5 Z"/></g>
<g><path style="opacity:1" fill="#091059" d="M 98.5,12.5 C 108.826,13.7218 118.492,16.7218 127.5,21.5C 119.819,19.4955 112.153,17.3288 104.5,15C 95.1667,14.3333 85.8333,14.3333 76.5,15C 76.8333,15.3333 77.1667,15.6667 77.5,16C 76.3709,18.1678 74.8709,18.6678 73,17.5C 72.2747,19.158 71.108,19.658 69.5,19C 71.9563,16.841 71.2896,16.0077 67.5,16.5C 71.1101,14.4259 75.1101,13.2593 79.5,13C 85.8246,12.5005 92.1579,12.3338 98.5,12.5 Z"/></g>
<g><path style="opacity:1" fill="#14185f" d="M 141.5,29.5 C 151.367,37.0332 159.034,46.3665 164.5,57.5C 161.922,53.915 158.922,50.5817 155.5,47.5C 154.782,42.376 152.448,41.376 148.5,44.5C 149.127,45.4168 149.461,46.4168 149.5,47.5C 147.66,45.832 145.66,44.332 143.5,43C 108.835,42.5 74.1683,42.3333 39.5,42.5C 39.6107,41.8826 39.944,41.3826 40.5,41C 76.1806,40.2135 111.847,40.3802 147.5,41.5C 147.739,39.5328 147.406,37.6995 146.5,36C 144.125,33.5933 143.125,34.0933 143.5,37.5C 140.722,37.9783 138.722,36.9783 137.5,34.5C 139.94,33.6641 141.273,31.9975 141.5,29.5 Z"/></g>
<g><path style="opacity:1" fill="#03045d" d="M 164.5,57.5 C 168.926,64.7781 171.593,72.7781 172.5,81.5C 172.5,86.1667 172.5,90.8333 172.5,95.5C 171.325,95.719 170.325,95.3857 169.5,94.5C 168.943,92.7648 168.61,91.0982 168.5,89.5C 167.276,91.8978 167.442,94.2311 169,96.5C 169.667,103.5 169.667,110.5 169,117.5C 167.579,120.009 165.912,122.343 164,124.5C 163.503,127.146 163.336,129.813 163.5,132.5C 163.5,132.833 163.5,133.167 163.5,133.5C 159.588,136.473 155.588,139.473 151.5,142.5C 152.853,143.524 153.52,144.857 153.5,146.5C 152.325,146.281 151.325,146.614 150.5,147.5C 147.043,152.298 142.709,155.964 137.5,158.5C 137.5,159.5 137.5,160.5 137.5,161.5C 134.828,161.948 132.828,163.281 131.5,165.5C 123.872,170.267 115.539,173.267 106.5,174.5C 98.8261,174.666 91.1594,174.5 83.5,174C 78.6141,172.776 73.6141,172.109 68.5,172C 66.5,170.667 64.5,169.333 62.5,168C 64.5,167.667 66.5,167.333 68.5,167C 64.4295,164.797 60.0961,163.464 55.5,163C 78.337,162.832 101.004,162.332 123.5,161.5C 127.614,157.19 127.281,153.023 122.5,149C 120.866,148.506 119.199,148.34 117.5,148.5C 116.833,148.167 116.167,147.833 115.5,147.5C 115.5,147.167 115.5,146.833 115.5,146.5C 114.833,143.833 114.167,141.167 113.5,138.5C 123.839,138.666 134.172,138.5 144.5,138C 145.252,137.329 145.586,136.496 145.5,135.5C 146.906,135.027 147.573,134.027 147.5,132.5C 148.885,131.426 150.051,130.093 151,128.5C 151.667,102.833 151.667,77.1667 151,51.5C 150.209,50.255 149.709,48.9217 149.5,47.5C 149.461,46.4168 149.127,45.4168 148.5,44.5C 152.448,41.376 154.782,42.376 155.5,47.5C 158.922,50.5817 161.922,53.915 164.5,57.5 Z"/></g>
<g><path style="opacity:1" fill="#111a5e" d="M 39.5,42.5 C 36.1416,44.6997 33.6416,47.6997 32,51.5C 31.3333,76.8333 31.3333,102.167 32,127.5C 32.2321,128.737 32.7321,129.737 33.5,130.5C 33.5,131.167 33.5,131.833 33.5,132.5C 32.5416,132.047 31.7083,131.381 31,130.5C 30.5,105.169 30.3334,79.8355 30.5,54.5C 30.4781,50.8571 31.4781,47.5238 33.5,44.5C 35.1789,42.8955 37.1789,42.2289 39.5,42.5 Z"/></g>
<g><path style="opacity:1" fill="#03045e" d="M 30.5,54.5 C 30.3334,79.8355 30.5,105.169 31,130.5C 31.7083,131.381 32.5416,132.047 33.5,132.5C 34.5,132.833 35.1667,133.5 35.5,134.5C 35.762,135.978 35.4287,137.311 34.5,138.5C 33.1667,136.5 31.5,134.833 29.5,133.5C 28.5344,135.396 28.2011,137.396 28.5,139.5C 34.6412,139.101 34.9746,140.101 29.5,142.5C 26.2927,141.365 24.9594,139.365 25.5,136.5C 23.5891,135.523 21.5891,134.857 19.5,134.5C 19.5,134.167 19.5,133.833 19.5,133.5C 19.7564,131.208 19.4231,129.041 18.5,127C 19.7376,127.077 20.7376,126.911 21.5,126.5C 20.1735,124.689 19.1735,122.689 18.5,120.5C 17.7189,121.729 17.2189,123.062 17,124.5C 16.1313,122.419 15.6313,120.253 15.5,118C 16.4171,113.636 18.0838,109.636 20.5,106C 20.0209,103.688 19.6876,101.355 19.5,99C 21.0356,92.6916 21.7023,86.1916 21.5,79.5C 21.1551,72.2729 20.4885,65.2729 19.5,58.5C 19.8333,58.1667 20.1667,57.8333 20.5,57.5C 21.6236,59.3686 22.4569,61.3686 23,63.5C 24.2992,60.583 26.1326,58.083 28.5,56C 28.1667,55.6667 27.8333,55.3333 27.5,55C 28.448,54.5172 29.448,54.3505 30.5,54.5 Z"/></g>
<g><path style="opacity:1" fill="#0c105c" d="M 172.5,81.5 C 174.097,93.8347 173.264,106.168 170,118.5C 168.488,123.567 166.321,128.233 163.5,132.5C 163.336,129.813 163.503,127.146 164,124.5C 165.912,122.343 167.579,120.009 169,117.5C 169.667,110.5 169.667,103.5 169,96.5C 167.442,94.2311 167.276,91.8978 168.5,89.5C 168.61,91.0982 168.943,92.7648 169.5,94.5C 170.325,95.3857 171.325,95.719 172.5,95.5C 172.5,90.8333 172.5,86.1667 172.5,81.5 Z"/></g>
<g><path style="opacity:1" fill="#b6cfed" d="M 39.5,42.5 C 74.1683,42.3333 108.835,42.5 143.5,43C 145.66,44.332 147.66,45.832 149.5,47.5C 149.709,48.9217 150.209,50.255 151,51.5C 151.667,77.1667 151.667,102.833 151,128.5C 150.051,130.093 148.885,131.426 147.5,132.5C 146.884,131.798 146.884,130.798 147.5,129.5C 147.5,128.833 147.5,128.167 147.5,127.5C 148.461,125.735 148.795,123.735 148.5,121.5C 110.5,121.5 72.5,121.5 34.5,121.5C 34.5,123.5 34.5,125.5 34.5,127.5C 34.7373,128.791 34.404,129.791 33.5,130.5C 32.7321,129.737 32.2321,128.737 32,127.5C 31.3333,102.167 31.3333,76.8333 32,51.5C 33.6416,47.6997 36.1416,44.6997 39.5,42.5 Z"/></g>
<g><path style="opacity:1" fill="#081454" d="M 39.5,46.5 C 39.0924,49.1976 37.9257,51.531 36,53.5C 35.5,74.8307 35.3334,96.1641 35.5,117.5C 49.5,117.5 63.5,117.5 77.5,117.5C 77.5,111.5 77.5,105.5 77.5,99.5C 78.4902,105.645 78.8235,111.978 78.5,118.5C 63.8333,118.5 49.1667,118.5 34.5,118.5C 34.3334,96.4975 34.5,74.4975 35,52.5C 35.5661,49.7713 37.0661,47.7713 39.5,46.5 Z"/></g>
<g><path style="opacity:1" fill="#091351" d="M 101.5,114.5 C 101.5,115.833 101.5,117.167 101.5,118.5C 94.8333,118.5 88.1667,118.5 81.5,118.5C 81.5,117.167 81.5,115.833 81.5,114.5C 88.1667,114.5 94.8333,114.5 101.5,114.5 Z"/></g>
<g><path style="opacity:1" fill="#01055c" d="M 82.5,115.5 C 88.2055,115.171 93.8722,115.505 99.5,116.5C 96.6667,116.833 93.8333,117.167 91,117.5C 87.7485,117.481 84.9151,116.814 82.5,115.5 Z"/></g>
<g><path style="opacity:1" fill="#060d58" d="M 81.5,108.5 C 87.8333,108.5 94.1667,108.5 100.5,108.5C 100.5,109.5 100.5,110.5 100.5,111.5C 94.1667,111.5 87.8333,111.5 81.5,111.5C 81.5,110.5 81.5,109.5 81.5,108.5 Z"/></g>
<g><path style="opacity:1" fill="#414f8a" d="M 81.5,108.5 C 81.5,108.167 81.5,107.833 81.5,107.5C 88.1667,107.5 94.8333,107.5 101.5,107.5C 101.768,109.099 101.434,110.432 100.5,111.5C 100.5,110.5 100.5,109.5 100.5,108.5C 94.1667,108.5 87.8333,108.5 81.5,108.5 Z"/></g>
<g><path style="opacity:1" fill="#03045e" d="M 81.5,103.5 C 81.5,102.167 81.5,100.833 81.5,99.5C 80.9491,94.5016 80.6157,89.5016 80.5,84.5C 79.8333,86.1667 79.1667,87.8333 78.5,89.5C 76.876,88.1311 76.376,86.4645 77,84.5C 79.4826,82.0528 82.3159,80.0528 85.5,78.5C 83.9964,74.1007 84.6631,73.6007 87.5,77C 88.2335,78.7659 88.5668,80.5992 88.5,82.5C 87.5,82.5 86.5,82.5 85.5,82.5C 83.5362,86.8888 84.2029,90.7221 87.5,94C 86.8333,95 86.1667,96 85.5,97C 89.2112,99.5064 93.2112,100.006 97.5,98.5C 95.604,97.5344 93.604,97.2011 91.5,97.5C 91.5,96.5 91.5,95.5 91.5,94.5C 95.145,95.3203 97.4783,93.987 98.5,90.5C 99.325,89.6143 100.325,89.281 101.5,89.5C 101.331,94.1811 100.998,98.8478 100.5,103.5C 94.1667,103.5 87.8333,103.5 81.5,103.5 Z"/></g>
<g><path style="opacity:1" fill="#b0c9e9" d="M 94.5,62.5 C 93.1667,62.5 91.8333,62.5 90.5,62.5C 90.5,63.5 90.5,64.5 90.5,65.5C 89.5084,65.3284 88.8417,65.6618 88.5,66.5C 83.9598,73.0761 79.2932,79.5761 74.5,86C 76.9472,90.5604 79.2805,95.0604 81.5,99.5C 81.5,100.833 81.5,102.167 81.5,103.5C 87.979,104.491 94.6457,104.824 101.5,104.5C 94.6046,104.85 87.9379,105.85 81.5,107.5C 81.5,107.833 81.5,108.167 81.5,108.5C 81.5,109.5 81.5,110.5 81.5,111.5C 87.8333,111.5 94.1667,111.5 100.5,111.5C 95.6835,112.326 90.6835,112.826 85.5,113C 91.0158,113.173 96.3491,113.673 101.5,114.5C 94.8333,114.5 88.1667,114.5 81.5,114.5C 81.5,115.833 81.5,117.167 81.5,118.5C 80.5,118.5 79.5,118.5 78.5,118.5C 78.8235,111.978 78.4902,105.645 77.5,99.5C 74.9533,94.4003 72.9533,89.067 71.5,83.5C 77.6836,76.8079 83.3503,69.6412 88.5,62C 90.7116,61.2109 92.7116,61.3775 94.5,62.5 Z"/></g>
<g><path style="opacity:1" fill="#070b5a" d="M 88.5,66.5 C 89.4889,71.9753 89.8222,77.642 89.5,83.5C 86.6699,85.3623 85.8366,88.0289 87,91.5C 89.1529,93.4439 91.6529,93.9439 94.5,93C 97.2467,89.5527 96.9134,86.386 93.5,83.5C 93.1786,77.9738 93.5119,72.6405 94.5,67.5C 98.7607,73.7674 103.427,79.7674 108.5,85.5C 104.19,91.1166 101.857,97.45 101.5,104.5C 94.6457,104.824 87.979,104.491 81.5,103.5C 87.8333,103.5 94.1667,103.5 100.5,103.5C 100.998,98.8478 101.331,94.1811 101.5,89.5C 100.325,89.281 99.325,89.6143 98.5,90.5C 97.4783,93.987 95.145,95.3203 91.5,94.5C 91.5,95.5 91.5,96.5 91.5,97.5C 93.604,97.2011 95.604,97.5344 97.5,98.5C 93.2112,100.006 89.2112,99.5064 85.5,97C 86.1667,96 86.8333,95 87.5,94C 84.2029,90.7221 83.5362,86.8888 85.5,82.5C 86.5,82.5 87.5,82.5 88.5,82.5C 88.5668,80.5992 88.2335,78.7659 87.5,77C 84.6631,73.6007 83.9964,74.1007 85.5,78.5C 82.3159,80.0528 79.4826,82.0528 77,84.5C 76.376,86.4645 76.876,88.1311 78.5,89.5C 79.1667,87.8333 79.8333,86.1667 80.5,84.5C 80.6157,89.5016 80.9491,94.5016 81.5,99.5C 79.2805,95.0604 76.9472,90.5604 74.5,86C 79.2932,79.5761 83.9598,73.0761 88.5,66.5 Z"/></g>
<g><path style="opacity:1" fill="#0f195f" d="M 89.5,86.5 C 90.8333,86.5 92.1667,86.5 93.5,86.5C 93.5,87.8333 93.5,89.1667 93.5,90.5C 92.1667,90.5 90.8333,90.5 89.5,90.5C 89.5,89.1667 89.5,87.8333 89.5,86.5 Z"/></g>
<g><path style="opacity:1" fill="#080b5b" d="M 121.5,59.5 C 118.482,59.2962 115.482,58.9629 112.5,58.5C 112.33,59.8221 112.663,60.9887 113.5,62C 114.951,61.7374 116.284,61.9041 117.5,62.5C 116.833,63.1667 116.167,63.8333 115.5,64.5C 117.078,65.2978 118.744,65.7978 120.5,66C 121.126,66.7504 121.626,67.5838 122,68.5C 122.213,73.2523 122.38,77.9189 122.5,82.5C 122.333,82.8333 122.167,83.1667 122,83.5C 120.211,81.771 118.044,81.1043 115.5,81.5C 113.427,83.7817 111.427,86.7817 109.5,90.5C 110.435,87.8872 110.602,85.2205 110,82.5C 104.088,76.3066 98.9211,69.6399 94.5,62.5C 92.7116,61.3775 90.7116,61.2109 88.5,62C 83.3503,69.6412 77.6836,76.8079 71.5,83.5C 67.7331,81.9797 63.7331,80.4797 59.5,79C 60.1352,75.3973 60.8018,71.8973 61.5,68.5C 61.2161,71.7766 61.5495,74.9433 62.5,78C 72.3063,80.3311 75.3063,76.6644 71.5,67C 74.648,61.6624 79.148,57.829 85,55.5C 86.0183,58.6829 88.185,60.0162 91.5,59.5C 92.8333,59.3333 94.1667,59.1667 95.5,59C 98.3239,56.012 101.324,56.012 104.5,59C 107.4,61.3968 109.733,64.2302 111.5,67.5C 107.043,77.0414 110.043,80.5414 120.5,78C 123.318,71.4973 121.318,67.664 114.5,66.5C 111.69,61.8561 108.023,58.0227 103.5,55C 108.5,54.3333 113.5,54.3333 118.5,55C 119.386,56.6147 120.386,58.1147 121.5,59.5 Z"/></g>
<g><path style="opacity:1" fill="#657ba5" d="M 88.5,66.5 C 88.8417,65.6618 89.5084,65.3284 90.5,65.5C 90.8229,71.69 90.4896,77.69 89.5,83.5C 89.8222,77.642 89.4889,71.9753 88.5,66.5 Z"/></g>
<g><path style="opacity:1" fill="#304575" d="M 94.5,67.5 C 93.5119,72.6405 93.1786,77.9738 93.5,83.5C 92.3475,77.6812 92.1808,71.6812 93,65.5C 93.7172,66.0442 94.2172,66.7109 94.5,67.5 Z"/></g>
<g><path style="opacity:1" fill="#03045e" d="M 121.5,59.5 C 122.833,59.5 124.167,59.5 125.5,59.5C 128.833,59.5 132.167,59.5 135.5,59.5C 137.421,78.3715 138.088,97.3715 137.5,116.5C 127.5,116.5 117.5,116.5 107.5,116.5C 106.377,109.327 106.377,101.993 107.5,94.5C 107.66,92.847 108.326,91.5137 109.5,90.5C 111.427,86.7817 113.427,83.7817 115.5,81.5C 118.044,81.1043 120.211,81.771 122,83.5C 122.167,83.1667 122.333,82.8333 122.5,82.5C 122.38,77.9189 122.213,73.2523 122,68.5C 121.626,67.5838 121.126,66.7504 120.5,66C 118.744,65.7978 117.078,65.2978 115.5,64.5C 116.167,63.8333 116.833,63.1667 117.5,62.5C 116.284,61.9041 114.951,61.7374 113.5,62C 112.663,60.9887 112.33,59.8221 112.5,58.5C 115.482,58.9629 118.482,59.2962 121.5,59.5 Z"/></g>
<g><path style="opacity:1" fill="#02045e" d="M 141.5,46.5 C 144.204,46.6696 145.871,48.0029 146.5,50.5C 146.5,72.5 146.5,94.5 146.5,116.5C 144.167,116.5 141.833,116.5 139.5,116.5C 139.833,98.1546 139.5,79.8212 138.5,61.5C 137.745,57.6226 135.412,55.956 131.5,56.5C 130.935,50.968 132.768,49.968 137,53.5C 137.494,51.8659 137.66,50.1992 137.5,48.5C 134.187,47.9552 130.854,47.4552 127.5,47C 132.155,46.5008 136.821,46.3342 141.5,46.5 Z"/></g>
<g><path style="opacity:1" fill="#b9d2ee" d="M 125.5,59.5 C 124.167,59.5 122.833,59.5 121.5,59.5C 120.386,58.1147 119.386,56.6147 118.5,55C 113.5,54.3333 108.5,54.3333 103.5,55C 108.023,58.0227 111.69,61.8561 114.5,66.5C 121.318,67.664 123.318,71.4973 120.5,78C 110.043,80.5414 107.043,77.0414 111.5,67.5C 109.733,64.2302 107.4,61.3968 104.5,59C 101.324,56.012 98.3239,56.012 95.5,59C 94.1667,59.1667 92.8333,59.3333 91.5,59.5C 88.185,60.0162 86.0183,58.6829 85,55.5C 79.148,57.829 74.648,61.6624 71.5,67C 75.3063,76.6644 72.3063,80.3311 62.5,78C 61.5495,74.9433 61.2161,71.7766 61.5,68.5C 63.4144,67.8153 65.4144,67.3153 67.5,67C 70.1176,62.0487 73.7842,58.0487 78.5,55C 73.5111,54.5007 68.5111,54.3341 63.5,54.5C 63.1778,58.9757 60.8444,60.4757 56.5,59C 53.4808,56.3872 52.8141,53.2205 54.5,49.5C 57.737,47.9854 60.737,48.3187 63.5,50.5C 70.8333,51.8333 78.1667,51.8333 85.5,50.5C 86.7294,48.0816 88.7294,47.0816 91.5,47.5C 94.2706,47.0816 96.2706,48.0816 97.5,50.5C 104.476,51.6644 111.476,51.8311 118.5,51C 123.21,46.095 126.876,46.7617 129.5,53C 129.278,55.9621 127.944,58.1288 125.5,59.5 Z"/></g>
<g><path style="opacity:1" fill="#081356" d="M 64.5,70.5 C 66.1667,70.5 67.8333,70.5 69.5,70.5C 69.5,72.1667 69.5,73.8333 69.5,75.5C 67.8333,75.5 66.1667,75.5 64.5,75.5C 64.5,73.8333 64.5,72.1667 64.5,70.5 Z"/></g>
<g><path style="opacity:1" fill="#283a69" d="M 117.5,75.5 C 117.5,74.1667 117.5,72.8333 117.5,71.5C 116.167,71.5 114.833,71.5 113.5,71.5C 113.5,72.8333 113.5,74.1667 113.5,75.5C 112.549,74.0813 112.216,72.4147 112.5,70.5C 114.5,70.5 116.5,70.5 118.5,70.5C 118.784,72.4147 118.451,74.0813 117.5,75.5 Z"/></g>
<g><path style="opacity:1" fill="#000654" d="M 117.5,75.5 C 116.167,75.5 114.833,75.5 113.5,75.5C 113.5,74.1667 113.5,72.8333 113.5,71.5C 114.833,71.5 116.167,71.5 117.5,71.5C 117.5,72.8333 117.5,74.1667 117.5,75.5 Z"/></g>
<g><path style="opacity:1" fill="#02045d" d="M 39.5,46.5 C 45.1764,46.3339 50.8431,46.5006 56.5,47C 54.7444,47.2022 53.0777,47.7022 51.5,48.5C 52.4259,52.0938 52.7592,55.7604 52.5,59.5C 55.4552,60.1587 58.4552,60.4921 61.5,60.5C 61.5,63.1667 61.5,65.8333 61.5,68.5C 60.8018,71.8973 60.1352,75.3973 59.5,79C 63.7331,80.4797 67.7331,81.9797 71.5,83.5C 72.9533,89.067 74.9533,94.4003 77.5,99.5C 77.5,105.5 77.5,111.5 77.5,117.5C 63.5,117.5 49.5,117.5 35.5,117.5C 35.3334,96.1641 35.5,74.8307 36,53.5C 37.9257,51.531 39.0924,49.1976 39.5,46.5 Z"/></g>
<g><path style="opacity:1" fill="#0a0e5a" d="M 39.5,46.5 C 73.5,45.1667 107.5,45.1667 141.5,46.5C 136.821,46.3342 132.155,46.5008 127.5,47C 130.854,47.4552 134.187,47.9552 137.5,48.5C 137.66,50.1992 137.494,51.8659 137,53.5C 132.768,49.968 130.935,50.968 131.5,56.5C 135.412,55.956 137.745,57.6226 138.5,61.5C 139.5,79.8212 139.833,98.1546 139.5,116.5C 141.833,116.5 144.167,116.5 146.5,116.5C 146.5,94.5 146.5,72.5 146.5,50.5C 147.222,50.9175 147.722,51.5842 148,52.5C 148.5,74.4975 148.667,96.4975 148.5,118.5C 133.833,118.5 119.167,118.5 104.5,118.5C 104.334,111.825 104.5,105.158 105,98.5C 105.608,96.9336 106.442,95.6002 107.5,94.5C 106.377,101.993 106.377,109.327 107.5,116.5C 117.5,116.5 127.5,116.5 137.5,116.5C 138.088,97.3715 137.421,78.3715 135.5,59.5C 132.167,59.5 128.833,59.5 125.5,59.5C 127.944,58.1288 129.278,55.9621 129.5,53C 126.876,46.7617 123.21,46.095 118.5,51C 111.476,51.8311 104.476,51.6644 97.5,50.5C 96.2706,48.0816 94.2706,47.0816 91.5,47.5C 88.7294,47.0816 86.7294,48.0816 85.5,50.5C 78.1667,51.8333 70.8333,51.8333 63.5,50.5C 60.737,48.3187 57.737,47.9854 54.5,49.5C 52.8141,53.2205 53.4808,56.3872 56.5,59C 60.8444,60.4757 63.1778,58.9757 63.5,54.5C 68.5111,54.3341 73.5111,54.5007 78.5,55C 73.7842,58.0487 70.1176,62.0487 67.5,67C 65.4144,67.3153 63.4144,67.8153 61.5,68.5C 61.5,65.8333 61.5,63.1667 61.5,60.5C 58.4552,60.4921 55.4552,60.1587 52.5,59.5C 52.7592,55.7604 52.4259,52.0938 51.5,48.5C 53.0777,47.7022 54.7444,47.2022 56.5,47C 50.8431,46.5006 45.1764,46.3339 39.5,46.5 Z"/></g>
<g><path style="opacity:1" fill="#2a3d6d" d="M 88.5,50.5 C 90.5,50.5 92.5,50.5 94.5,50.5C 94.5,52.5 94.5,54.5 94.5,56.5C 92.5,56.5 90.5,56.5 88.5,56.5C 88.5,54.5 88.5,52.5 88.5,50.5 Z"/></g>
<g><path style="opacity:1" fill="#000952" d="M 89.5,51.5 C 90.8333,51.5 92.1667,51.5 93.5,51.5C 93.5,52.8333 93.5,54.1667 93.5,55.5C 92.1667,55.5 90.8333,55.5 89.5,55.5C 89.5,54.1667 89.5,52.8333 89.5,51.5 Z"/></g>
<g><path style="opacity:1" fill="#171c60" d="M 56.5,51.5 C 58.1667,51.5 59.8333,51.5 61.5,51.5C 61.8194,55.3107 60.3194,56.6441 57,55.5C 56.51,54.2068 56.3433,52.8734 56.5,51.5 Z"/></g>
<g><path style="opacity:1" fill="#161c5d" d="M 121.5,51.5 C 123.167,51.5 124.833,51.5 126.5,51.5C 127.169,55.6759 125.669,57.0093 122,55.5C 121.51,54.2068 121.343,52.8734 121.5,51.5 Z"/></g>
<g><path style="opacity:1" fill="#354181" d="M 147.5,127.5 C 147.5,125.833 147.5,124.167 147.5,122.5C 110.167,122.5 72.8333,122.5 35.5,122.5C 35.5,124.167 35.5,125.833 35.5,127.5C 35.1667,127.5 34.8333,127.5 34.5,127.5C 34.5,125.5 34.5,123.5 34.5,121.5C 72.5,121.5 110.5,121.5 148.5,121.5C 148.795,123.735 148.461,125.735 147.5,127.5 Z"/></g>
<g><path style="opacity:1" fill="#02055b" d="M 147.5,127.5 C 147.5,128.167 147.5,128.833 147.5,129.5C 145.754,131.252 143.754,132.585 141.5,133.5C 108.832,133.667 76.165,133.5 43.5,133C 40.9398,132.616 38.6064,131.783 36.5,130.5C 35.8902,129.609 35.5569,128.609 35.5,127.5C 35.5,125.833 35.5,124.167 35.5,122.5C 72.8333,122.5 110.167,122.5 147.5,122.5C 147.5,124.167 147.5,125.833 147.5,127.5 Z"/></g>
<g><path style="opacity:1" fill="#b4c2ec" d="M 89.5,126.5 C 90.8333,126.5 92.1667,126.5 93.5,126.5C 93.5,127.5 93.5,128.5 93.5,129.5C 92.1667,129.5 90.8333,129.5 89.5,129.5C 89.5,128.5 89.5,127.5 89.5,126.5 Z"/></g>
<g><path style="opacity:1" fill="#a3b9e2" d="M 34.5,127.5 C 34.8333,127.5 35.1667,127.5 35.5,127.5C 35.5569,128.609 35.8902,129.609 36.5,130.5C 37.343,132.173 38.6763,133.34 40.5,134C 74.3358,134.831 108.002,134.664 141.5,133.5C 143.754,132.585 145.754,131.252 147.5,129.5C 146.884,130.798 146.884,131.798 147.5,132.5C 147.573,134.027 146.906,135.027 145.5,135.5C 144.292,136.234 142.959,136.567 141.5,136.5C 130.679,135.505 119.679,135.172 108.5,135.5C 86.1642,135.333 63.8308,135.5 41.5,136C 51.6751,136.17 61.6751,136.67 71.5,137.5C 60.8281,137.667 50.1615,137.5 39.5,137C 38.3066,135.905 36.9733,135.072 35.5,134.5C 35.1667,133.5 34.5,132.833 33.5,132.5C 33.5,131.833 33.5,131.167 33.5,130.5C 34.404,129.791 34.7373,128.791 34.5,127.5 Z"/></g>
<g><path style="opacity:1" fill="#0a1959" d="M 36.5,130.5 C 38.6064,131.783 40.9398,132.616 43.5,133C 76.165,133.5 108.832,133.667 141.5,133.5C 108.002,134.664 74.3358,134.831 40.5,134C 38.6763,133.34 37.343,132.173 36.5,130.5 Z"/></g>
<g><path style="opacity:1" fill="#b5cdec" d="M 108.5,135.5 C 119.679,135.172 130.679,135.505 141.5,136.5C 131.341,137.33 121.008,137.83 110.5,138C 112.067,140.979 113.734,143.812 115.5,146.5C 115.5,146.833 115.5,147.167 115.5,147.5C 114.711,147.783 114.044,148.283 113.5,149C 98.6609,149.828 83.9942,149.661 69.5,148.5C 83.8488,148.833 98.1821,148.499 112.5,147.5C 110.538,144.567 108.871,141.567 107.5,138.5C 97.0131,137.506 86.3464,137.172 75.5,137.5C 86.5,136.833 97.5,136.167 108.5,135.5 Z"/></g>
<g><path style="opacity:1" fill="#1a2565" d="M 75.5,137.5 C 86.3464,137.172 97.0131,137.506 107.5,138.5C 96.8333,138.5 86.1667,138.5 75.5,138.5C 75.913,141.32 74.913,143.32 72.5,144.5C 73.6557,142.176 74.6557,139.843 75.5,137.5 Z"/></g>
<g><path style="opacity:1" fill="#151f63" d="M 145.5,135.5 C 145.586,136.496 145.252,137.329 144.5,138C 134.172,138.5 123.839,138.666 113.5,138.5C 114.167,141.167 114.833,143.833 115.5,146.5C 113.734,143.812 112.067,140.979 110.5,138C 121.008,137.83 131.341,137.33 141.5,136.5C 142.959,136.567 144.292,136.234 145.5,135.5 Z"/></g>
<g><path style="opacity:1" fill="#05075d" d="M 35.5,134.5 C 36.9733,135.072 38.3066,135.905 39.5,137C 50.1615,137.5 60.8281,137.667 71.5,137.5C 70.802,141.897 68.802,145.564 65.5,148.5C 60.7811,147.58 57.4478,149.247 55.5,153.5C 54.5975,156.997 53.9309,160.663 53.5,164.5C 51.4352,164.483 49.4352,164.15 47.5,163.5C 35.4712,156.471 26.1379,146.804 19.5,134.5C 21.5891,134.857 23.5891,135.523 25.5,136.5C 24.9594,139.365 26.2927,141.365 29.5,142.5C 34.9746,140.101 34.6412,139.101 28.5,139.5C 28.2011,137.396 28.5344,135.396 29.5,133.5C 31.5,134.833 33.1667,136.5 34.5,138.5C 35.4287,137.311 35.762,135.978 35.5,134.5 Z"/></g>
<g><path style="opacity:1" fill="#02045c" d="M 107.5,138.5 C 107.104,141.482 107.771,144.149 109.5,146.5C 97.1847,147.499 84.8513,147.832 72.5,147.5C 72.5,146.5 72.5,145.5 72.5,144.5C 74.913,143.32 75.913,141.32 75.5,138.5C 86.1667,138.5 96.8333,138.5 107.5,138.5 Z"/></g>
<g><path style="opacity:1" fill="#0b0f5b" d="M 163.5,133.5 C 156.117,147.549 145.451,158.216 131.5,165.5C 132.828,163.281 134.828,161.948 137.5,161.5C 137.5,160.5 137.5,159.5 137.5,158.5C 142.709,155.964 147.043,152.298 150.5,147.5C 151.325,146.614 152.325,146.281 153.5,146.5C 153.52,144.857 152.853,143.524 151.5,142.5C 155.588,139.473 159.588,136.473 163.5,133.5 Z"/></g>
<g><path style="opacity:1" fill="#040f4f" d="M 107.5,138.5 C 108.871,141.567 110.538,144.567 112.5,147.5C 98.1821,148.499 83.8488,148.833 69.5,148.5C 70.5116,147.128 71.5116,145.795 72.5,144.5C 72.5,145.5 72.5,146.5 72.5,147.5C 84.8513,147.832 97.1847,147.499 109.5,146.5C 107.771,144.149 107.104,141.482 107.5,138.5 Z"/></g>
<g><path style="opacity:1" fill="#cbe5fb" d="M 108.5,135.5 C 97.5,136.167 86.5,136.833 75.5,137.5C 74.6557,139.843 73.6557,142.176 72.5,144.5C 71.5116,145.795 70.5116,147.128 69.5,148.5C 83.9942,149.661 98.6609,149.828 113.5,149C 114.044,148.283 114.711,147.783 115.5,147.5C 116.167,147.833 116.833,148.167 117.5,148.5C 108.692,149.832 99.5252,150.498 90,150.5C 80.8333,150.333 71.6667,150.167 62.5,150C 63.7375,149.768 64.7375,149.268 65.5,148.5C 68.802,145.564 70.802,141.897 71.5,137.5C 61.6751,136.67 51.6751,136.17 41.5,136C 63.8308,135.5 86.1642,135.333 108.5,135.5 Z"/></g>
<g><path style="opacity:1" fill="#a4bae0" d="M 65.5,148.5 C 64.7375,149.268 63.7375,149.768 62.5,150C 71.6667,150.167 80.8333,150.333 90,150.5C 99.5252,150.498 108.692,149.832 117.5,148.5C 119.199,148.34 120.866,148.506 122.5,149C 127.281,153.023 127.614,157.19 123.5,161.5C 123.167,161.5 122.833,161.5 122.5,161.5C 112.188,160.168 101.522,159.501 90.5,159.5C 79.8333,159.667 69.1667,159.833 58.5,160C 59.056,160.383 59.3893,160.883 59.5,161.5C 56.1102,160.056 54.7768,157.39 55.5,153.5C 57.4478,149.247 60.7811,147.58 65.5,148.5 Z"/></g>
<g><path style="opacity:1" fill="#010b50" d="M 71.5,158.5 C 87.9916,157.503 104.658,157.17 121.5,157.5C 121.5,156.167 121.5,154.833 121.5,153.5C 101.397,152.27 81.3974,152.27 61.5,153.5C 60.1468,154.524 59.4802,155.857 59.5,157.5C 61.099,157.232 62.4324,157.566 63.5,158.5C 61.8333,158.5 60.1667,158.5 58.5,158.5C 58.1043,155.956 58.771,153.789 60.5,152C 80.8333,151.333 101.167,151.333 121.5,152C 123.229,153.789 123.896,155.956 123.5,158.5C 106.167,158.5 88.8333,158.5 71.5,158.5 Z"/></g>
<g><path style="opacity:1" fill="#02055c" d="M 71.5,158.5 C 68.8333,158.5 66.1667,158.5 63.5,158.5C 62.4324,157.566 61.099,157.232 59.5,157.5C 59.4802,155.857 60.1468,154.524 61.5,153.5C 81.3974,152.27 101.397,152.27 121.5,153.5C 121.5,154.833 121.5,156.167 121.5,157.5C 104.658,157.17 87.9916,157.503 71.5,158.5 Z"/></g>
<g><path style="opacity:1" fill="#cdebfe" d="M 122.5,161.5 C 101.5,161.5 80.5,161.5 59.5,161.5C 59.3893,160.883 59.056,160.383 58.5,160C 69.1667,159.833 79.8333,159.667 90.5,159.5C 101.522,159.501 112.188,160.168 122.5,161.5 Z"/></g>
<g><path style="opacity:1" fill="#0e125e" d="M 55.5,153.5 C 54.7768,157.39 56.1102,160.056 59.5,161.5C 80.5,161.5 101.5,161.5 122.5,161.5C 122.833,161.5 123.167,161.5 123.5,161.5C 101.004,162.332 78.337,162.832 55.5,163C 60.0961,163.464 64.4295,164.797 68.5,167C 66.5,167.333 64.5,167.667 62.5,168C 64.5,169.333 66.5,170.667 68.5,172C 73.6141,172.109 78.6141,172.776 83.5,174C 91.1594,174.5 98.8261,174.666 106.5,174.5C 90.9833,177.876 75.6499,176.709 60.5,171C 55.7768,168.978 51.4434,166.478 47.5,163.5C 49.4352,164.15 51.4352,164.483 53.5,164.5C 53.9309,160.663 54.5975,156.997 55.5,153.5 Z"/></g>
<g><path style="opacity:0.96" fill="#e4f5f7" d="M 49.5,173.5 C 59.2112,175.905 68.8779,178.405 78.5,181C 89.1595,182.658 99.8261,182.825 110.5,181.5C 89.2019,186.796 68.8686,184.129 49.5,173.5 Z"/></g>
</svg>
