<svg width="25" height="24" viewBox="0 0 25 24" fill="none" xmlns="http://www.w3.org/2000/svg">
<g clip-path="url(#clip0_119_7369)">
<path d="M4.52173 7C4.52173 6.46957 4.73244 5.96086 5.10751 5.58579C5.48259 5.21071 5.9913 5 6.52173 5H18.5217C19.0522 5 19.5609 5.21071 19.9359 5.58579C20.311 5.96086 20.5217 6.46957 20.5217 7V19C20.5217 19.5304 20.311 20.0391 19.9359 20.4142C19.5609 20.7893 19.0522 21 18.5217 21H6.52173C5.9913 21 5.48259 20.7893 5.10751 20.4142C4.73244 20.0391 4.52173 19.5304 4.52173 19V7Z" stroke="#03045E" stroke-width="1.5" stroke-linecap="round" stroke-linejoin="round"/>
<path d="M16.5217 3V7" stroke="#03045E" stroke-width="1.5" stroke-linecap="round" stroke-linejoin="round"/>
<path d="M8.52173 3V7" stroke="#03045E" stroke-width="1.5" stroke-linecap="round" stroke-linejoin="round"/>
<path d="M4.52173 11H20.5217" stroke="#03045E" stroke-width="1.5" stroke-linecap="round" stroke-linejoin="round"/>
<path d="M8.52173 15H10.5217V17H8.52173V15Z" stroke="#03045E" stroke-width="1.5" stroke-linecap="round" stroke-linejoin="round"/>
</g>
<defs>
<clipPath id="clip0_119_7369">
<rect width="24" height="24" fill="white" transform="translate(0.521729)"/>
</clipPath>
</defs>
</svg>
